<svg width="40" height="70" viewBox="0 0 40 70" fill="none" xmlns="http://www.w3.org/2000/svg">
<path d="M0 22.9336H14.9516V36H0V22.9336Z" fill="white"/>
<path d="M2.93945 12.0017H27.2358V33.0679H16.4971V21.6681H2.93945V12.0017Z" fill="#E94F1C"/>
<path d="M6.14062 0H39.7817V29.866H28.6563V10.5997H6.14062V0Z" fill="white"/>
<path d="M1.045 51.797C1.10833 50.5303 1.55167 49.555 2.375 48.871C3.211 48.1743 4.30667 47.826 5.662 47.826C6.58667 47.826 7.37833 47.9907 8.037 48.32C8.69567 48.6367 9.18967 49.0737 9.519 49.631C9.861 50.1757 10.032 50.7963 10.032 51.493C10.032 52.291 9.823 52.9687 9.405 53.526C8.99967 54.0707 8.512 54.438 7.942 54.628V54.704C8.67667 54.932 9.24667 55.3373 9.652 55.92C10.07 56.5027 10.279 57.25 10.279 58.162C10.279 58.922 10.1017 59.5997 9.747 60.195C9.405 60.7903 8.892 61.259 8.208 61.601C7.53667 61.9303 6.726 62.095 5.776 62.095C4.34467 62.095 3.17933 61.734 2.28 61.012C1.38067 60.29 0.905667 59.226 0.855 57.82H3.439C3.46433 58.4407 3.67333 58.941 4.066 59.321C4.47133 59.6883 5.02233 59.872 5.719 59.872C6.365 59.872 6.859 59.6947 7.201 59.34C7.55567 58.9727 7.733 58.504 7.733 57.934C7.733 57.174 7.49233 56.6293 7.011 56.3C6.52967 55.9707 5.78233 55.806 4.769 55.806H4.218V53.621H4.769C6.56767 53.621 7.467 53.0193 7.467 51.816C7.467 51.2713 7.30233 50.847 6.973 50.543C6.65633 50.239 6.194 50.087 5.586 50.087C4.99067 50.087 4.52833 50.2517 4.199 50.581C3.88233 50.8977 3.69867 51.303 3.648 51.797H1.045ZM17.264 62.133C16.3394 62.133 15.5034 61.9747 14.756 61.658C14.0214 61.3413 13.4387 60.8853 13.008 60.29C12.5774 59.6947 12.3557 58.9917 12.343 58.181H15.193C15.231 58.7257 15.421 59.1563 15.763 59.473C16.1177 59.7897 16.599 59.948 17.207 59.948C17.8277 59.948 18.3154 59.8023 18.67 59.511C19.0247 59.207 19.202 58.8143 19.202 58.333C19.202 57.9403 19.0817 57.6173 18.841 57.364C18.6004 57.1107 18.2964 56.9143 17.929 56.775C17.5744 56.623 17.0804 56.4583 16.447 56.281C15.5857 56.0277 14.8827 55.7807 14.338 55.54C13.806 55.2867 13.3437 54.913 12.951 54.419C12.571 53.9123 12.381 53.241 12.381 52.405C12.381 51.6197 12.5774 50.9357 12.97 50.353C13.3627 49.7703 13.9137 49.327 14.623 49.023C15.3324 48.7063 16.143 48.548 17.055 48.548C18.423 48.548 19.5314 48.8837 20.38 49.555C21.2414 50.2137 21.7164 51.1383 21.805 52.329H18.879C18.8537 51.873 18.6574 51.4993 18.29 51.208C17.9354 50.904 17.4604 50.752 16.865 50.752C16.3457 50.752 15.9277 50.885 15.611 51.151C15.307 51.417 15.155 51.8033 15.155 52.31C15.155 52.6647 15.269 52.9623 15.497 53.203C15.7377 53.431 16.029 53.621 16.371 53.773C16.7257 53.9123 17.2197 54.077 17.853 54.267C18.7144 54.5203 19.4174 54.7737 19.962 55.027C20.5067 55.2803 20.9754 55.6603 21.368 56.167C21.7607 56.6737 21.957 57.3387 21.957 58.162C21.957 58.8713 21.7734 59.53 21.406 60.138C21.0387 60.746 20.5004 61.2337 19.791 61.601C19.0817 61.9557 18.2394 62.133 17.264 62.133ZM23.6171 55.35C23.6171 54.0453 23.9085 52.88 24.4911 51.854C25.0865 50.8153 25.8908 50.011 26.9041 49.441C27.9301 48.8583 29.0765 48.567 30.3431 48.567C31.8251 48.567 33.1235 48.947 34.2381 49.707C35.3528 50.467 36.1318 51.5183 36.5751 52.861H33.5161C33.2121 52.2277 32.7815 51.7527 32.2241 51.436C31.6795 51.1193 31.0461 50.961 30.3241 50.961C29.5515 50.961 28.8611 51.1447 28.2531 51.512C27.6578 51.8667 27.1891 52.3733 26.8471 53.032C26.5178 53.6907 26.3531 54.4633 26.3531 55.35C26.3531 56.224 26.5178 56.9967 26.8471 57.668C27.1891 58.3267 27.6578 58.8397 28.2531 59.207C28.8611 59.5617 29.5515 59.739 30.3241 59.739C31.0461 59.739 31.6795 59.5807 32.2241 59.264C32.7815 58.9347 33.2121 58.4533 33.5161 57.82H36.5751C36.1318 59.1753 35.3528 60.233 34.2381 60.993C33.1361 61.7403 31.8378 62.114 30.3431 62.114C29.0765 62.114 27.9301 61.829 26.9041 61.259C25.8908 60.6763 25.0865 59.872 24.4911 58.846C23.9085 57.82 23.6171 56.6547 23.6171 55.35Z" fill="white"/>
</svg>
