<svg width="36" height="36" viewBox="0 0 36 36" fill="none" xmlns="http://www.w3.org/2000/svg">
<path d="M25.5935 7.69077H31.1469L24.6133 0.968994V6.71975C24.6134 6.84799 24.639 6.97492 24.6884 7.09325C24.7379 7.21157 24.8103 7.31896 24.9014 7.40921C24.9925 7.49946 25.1005 7.5708 25.2193 7.61913C25.3381 7.66744 25.4652 7.69179 25.5935 7.69077Z" fill="white"/>
<path d="M23.303 6.71989V0H6.54911C5.85202 0.00226932 5.18399 0.279569 4.69021 0.771632C4.19643 1.26369 3.91681 1.93076 3.91211 2.62784V33.3722C3.91681 34.0692 4.19643 34.7363 4.69021 35.2283C5.18399 35.7205 5.85202 35.9977 6.54911 36H29.4205C30.1177 35.9977 30.7857 35.7205 31.2795 35.2283C31.7732 34.7363 32.0528 34.0692 32.0575 33.3722V9H25.5923C25.2922 9.00086 24.9949 8.94256 24.7173 8.82837C24.4398 8.71419 24.1875 8.5464 23.9748 8.33463C23.7622 8.12285 23.5935 7.87124 23.4782 7.59416C23.3629 7.31709 23.3034 7.01999 23.303 6.71989ZM15.1212 8.67271C15.1212 8.49913 15.1901 8.33267 15.3129 8.20988C15.4356 8.08717 15.6022 8.01822 15.7758 8.01822H20.1121C20.2857 8.01822 20.4522 8.08717 20.5749 8.20988C20.6977 8.33267 20.7667 8.49913 20.7667 8.67271V20.2091C20.7667 20.3827 20.6977 20.5492 20.5749 20.6719C20.4522 20.7947 20.2857 20.8636 20.1121 20.8636H15.7758C15.6022 20.8636 15.4356 20.7947 15.3129 20.6719C15.1901 20.5492 15.1212 20.3827 15.1212 20.2091V8.67271ZM7.75757 15.2182C7.75757 15.0446 7.82652 14.8781 7.94927 14.7554C8.07203 14.6326 8.23851 14.5636 8.41211 14.5636H12.7485C12.922 14.5636 13.0886 14.6326 13.2113 14.7554C13.3341 14.8781 13.403 15.0446 13.403 15.2182V20.2091C13.403 20.3827 13.3341 20.5492 13.2113 20.6719C13.0886 20.7947 12.922 20.8636 12.7485 20.8636H8.41211C8.23851 20.8636 8.07203 20.7947 7.94927 20.6719C7.82652 20.5492 7.75757 20.3827 7.75757 20.2091V15.2182ZM8.31557 25.5273H19.5914C19.765 25.5273 19.9315 25.5962 20.0543 25.7189C20.177 25.8417 20.2459 26.0082 20.2459 26.1818C20.2459 26.3554 20.177 26.5219 20.0543 26.6446C19.9315 26.7674 19.765 26.8364 19.5914 26.8364H8.31557C8.14197 26.8364 7.97548 26.7674 7.85273 26.6446C7.72998 26.5219 7.66102 26.3554 7.66102 26.1818C7.66102 26.0082 7.72998 25.8417 7.85273 25.7189C7.97548 25.5962 8.14197 25.5273 8.31557 25.5273ZM27.1501 31.2546H8.31557C8.14197 31.2546 7.97548 31.1855 7.85273 31.0628C7.72998 30.94 7.66102 30.7736 7.66102 30.6C7.66102 30.4264 7.72998 30.2599 7.85273 30.1372C7.97548 30.0144 8.14197 29.9454 8.31557 29.9454H27.1501C27.3237 29.9454 27.4902 30.0144 27.6129 30.1372C27.7357 30.2599 27.8047 30.4264 27.8047 30.6C27.8047 30.7736 27.7357 30.94 27.6129 31.0628C27.4902 31.1855 27.3237 31.2546 27.1501 31.2546ZM28.1303 12.7636V20.2091C28.1303 20.3827 28.0613 20.5492 27.9386 20.6719C27.8158 20.7947 27.6493 20.8636 27.4758 20.8636H23.1394C22.9658 20.8636 22.7993 20.7947 22.6766 20.6719C22.5538 20.5492 22.4848 20.3827 22.4848 20.2091V12.7636C22.4848 12.5901 22.5538 12.4235 22.6766 12.3008C22.7993 12.178 22.9658 12.1091 23.1394 12.1091H27.4758C27.6493 12.1091 27.8158 12.178 27.9386 12.3008C28.0613 12.4235 28.1303 12.5901 28.1303 12.7636Z" fill="white"/>
<path d="M6 33.5V8L20 7L29.5 11.5V33.5H6Z" fill="white"/>
<path fill-rule="evenodd" clip-rule="evenodd" d="M11.6924 20.6101L14.7275 17.1144C14.6106 16.9659 14.531 16.7918 14.4953 16.6065C14.4597 16.4212 14.469 16.2301 14.5226 16.0491C14.5761 15.8682 14.6724 15.7026 14.8032 15.5662C14.9341 15.4298 15.0959 15.3265 15.2749 15.2649C15.4541 15.2033 15.6453 15.1852 15.8328 15.2122C16.0203 15.2391 16.1987 15.3103 16.353 15.4198C16.5073 15.5293 16.6331 15.6739 16.7198 15.8417C16.8066 16.0094 16.8519 16.1953 16.8519 16.384C16.8519 16.4 16.8519 16.416 16.8519 16.4318L19.1445 16.9757C19.2167 16.818 19.3227 16.678 19.4551 16.5656C19.5876 16.4533 19.7432 16.3711 19.9109 16.3251C20.0787 16.2791 20.2546 16.2704 20.4261 16.2995C20.5977 16.3285 20.7607 16.3947 20.9037 16.4934L23.7938 13.6935C23.6325 13.4471 23.569 13.1498 23.6158 12.8594C23.6626 12.569 23.8164 12.3064 24.0471 12.1227C24.2777 11.939 24.5689 11.8475 24.8637 11.8658C25.1585 11.8843 25.4358 12.0113 25.6417 12.2223C25.8475 12.4333 25.9671 12.713 25.9771 13.007C25.987 13.3009 25.8867 13.5881 25.6957 13.8123C25.5045 14.0366 25.2365 14.1821 24.9436 14.2202C24.6507 14.2584 24.354 14.1867 24.1114 14.019L21.222 16.8188C21.3232 16.9731 21.3869 17.1489 21.408 17.3321C21.429 17.5152 21.4067 17.7007 21.343 17.8738C21.2793 18.0469 21.1759 18.2028 21.041 18.329C20.9061 18.4553 20.7435 18.5485 20.5661 18.6011C20.3886 18.6536 20.2013 18.6643 20.019 18.632C19.8367 18.5999 19.6645 18.5257 19.516 18.4155C19.3676 18.3053 19.2471 18.1621 19.1641 17.9973C19.0811 17.8325 19.0379 17.6507 19.0379 17.4664C19.0379 17.4504 19.0379 17.4343 19.0379 17.4185L16.7454 16.8747C16.6767 17.0245 16.5775 17.1584 16.454 17.2678C16.3305 17.3773 16.1854 17.4599 16.0281 17.5103C15.8707 17.5609 15.7045 17.5781 15.5401 17.5611C15.3756 17.5441 15.2165 17.493 15.073 17.4114L12.037 20.9067C12.2193 21.138 12.3085 21.4287 12.2873 21.722C12.2661 22.0153 12.1359 22.2903 11.9221 22.4932C11.7084 22.6961 11.4264 22.8126 11.1312 22.8198C10.8359 22.827 10.5486 22.7245 10.3251 22.5322C10.1017 22.3399 9.95815 22.0716 9.92253 21.7797C9.8869 21.4878 9.96174 21.1931 10.1324 20.9531C10.3032 20.7132 10.5575 20.5451 10.8459 20.4817C11.1343 20.4183 11.436 20.4641 11.6924 20.6101ZM12.4083 24.5537H9.79492V30.8334H12.4083V24.5537ZM17.0032 20.0224H14.3888V30.8334H17.0032V20.0224ZM21.5336 21.4265H18.9191V30.8334H21.5336V21.4265ZM26.0957 17.052H23.4822V30.8334H26.0957V17.052Z" fill="black"/>
<path d="M28.0024 30.8335H7.88867V32.0727H28.0024V30.8335Z" fill="black"/>
</svg>
