<svg width="36" height="36" viewBox="0 0 36 36" fill="none" xmlns="http://www.w3.org/2000/svg">
<g clip-path="url(#clip0_3092_9938)">
<path d="M14.5084 0.0542218C14.2674 -0.0180739 14.0107 -0.0180739 13.7698 0.0542218L0.91602 3.91136C0.37233 4.07452 0 4.57508 0 5.14286V21.1764C0 25.2409 2.13204 29.0076 5.61648 31.0988L13.4778 35.8168C13.8848 36.061 14.3933 36.061 14.8004 35.8168L22.6616 31.0988C24.3622 30.0782 25.7406 28.6586 26.7062 27H22.163C17.1328 27 13.4348 21.4231 16.5178 16.7557L21.3476 9.4435C22.9401 7.03259 25.7284 6.0676 28.2782 6.54856V5.14286C28.2782 4.57508 27.9058 4.07452 27.362 3.91136L14.5084 0.0542218Z" fill="#FF7A4E"/>
<path fill-rule="evenodd" clip-rule="evenodd" d="M23.4933 10.8609C25.1323 8.37968 28.8549 8.37968 30.4939 10.8609L35.3237 18.173C37.1561 20.9472 35.0289 24.4286 31.8234 24.4286H22.1639C18.9582 24.4286 16.8311 20.9472 18.6635 18.173L23.4933 10.8609ZM28.2789 14.1428C28.2789 13.4328 27.7035 12.8571 26.9936 12.8571C26.2837 12.8571 25.7082 13.4328 25.7082 14.1428V15.4286C25.7082 16.1386 26.2837 16.7143 26.9936 16.7143C27.7035 16.7143 28.2789 16.1386 28.2789 15.4286V14.1428ZM28.2789 19.2857C28.2789 19.9958 27.7035 20.5714 26.9936 20.5714C26.2837 20.5714 25.7082 19.9958 25.7082 19.2857C25.7082 18.5756 26.2837 18 26.9936 18C27.7035 18 28.2789 18.5756 28.2789 19.2857Z" fill="white"/>
</g>
<defs>
<clipPath id="clip0_3092_9938">
<rect width="36" height="36" fill="white"/>
</clipPath>
</defs>
</svg>
