<svg width="36" height="36" viewBox="0 0 36 36" fill="none" xmlns="http://www.w3.org/2000/svg">
<g clip-path="url(#clip0_3092_9907)">
<path d="M25.811 15.4374L25.3316 14.6209C24.9319 13.9601 24.093 13.7268 23.4137 14.0379L21.1361 15.1264C20.2171 14.2324 19.0582 13.5716 17.7798 13.2215L17.6201 10.7723C17.5803 10.0337 16.9409 9.45068 16.1816 9.45068H15.2226C14.4633 9.45068 13.824 10.0337 13.7842 10.7723L13.5844 13.2606C12.3056 13.6103 11.147 14.2712 10.2281 15.1654L7.9504 14.0767C7.27118 13.7269 6.43197 13.9989 6.03256 14.6597L5.55289 15.4374C5.1532 16.0983 5.35304 16.9147 5.99242 17.3423L8.07023 18.703C7.91053 19.3251 7.83054 19.9472 7.83054 20.608C7.83054 21.2687 7.91053 21.8908 8.07023 22.4739L5.99242 23.8346C5.35305 24.2622 5.15319 25.0787 5.55289 25.7004L6.03227 26.517C6.43196 27.1777 7.23104 27.411 7.95013 27.1L10.1876 26.0115C11.1065 26.9056 12.2655 27.5663 13.5439 27.8773L13.7036 30.3265C13.7434 31.0652 14.3828 31.6482 15.1421 31.6482H16.1011C16.8603 31.6482 17.4997 31.0652 17.5395 30.3265L17.6992 27.8773C18.978 27.5276 20.1366 26.8667 21.0555 26.0115L23.3332 27.1C24.0124 27.411 24.8516 27.1777 25.251 26.517L25.7304 25.7004C26.1301 25.0397 25.9302 24.2231 25.2908 23.8346L23.2131 22.4739C23.3728 21.8909 23.4528 21.2297 23.4528 20.608C23.4528 19.9471 23.3728 19.3251 23.2131 18.703L25.2908 17.3423C26.0108 16.9147 26.2107 16.0981 25.811 15.4374ZM15.662 24.4563C13.4643 24.4563 11.7063 22.7457 11.7063 20.6076C11.7063 18.4696 13.4644 16.759 15.662 16.759C17.8597 16.759 19.6178 18.4696 19.6178 20.6076C19.6576 22.746 17.8597 24.4563 15.662 24.4563Z" fill="white"/>
<path d="M29.6062 26.244C29.2865 26.1274 28.9669 26.244 28.8071 26.5163C28.3676 27.4103 27.8481 28.2656 27.2489 29.082C27.049 29.3543 27.0892 29.704 27.3687 29.8985C27.4886 29.9763 27.6083 30.0152 27.7282 30.0152C27.9281 30.0152 28.0878 29.9373 28.2077 29.7819C28.8869 28.9267 29.4462 27.9936 29.9257 27.0217C30.0458 26.7104 29.9259 26.3606 29.6062 26.244Z" fill="white"/>
<path d="M23.3746 32.5415C21.7363 33.5521 19.9383 34.2129 18.0205 34.4851H17.9806C17.2214 34.6018 16.4623 34.6795 15.703 34.6795C7.71165 34.6795 1.19872 28.343 1.19872 20.5682C1.19872 13.5321 6.51295 7.70088 13.4254 6.65129L11.5076 7.89539C11.2277 8.08982 11.148 8.43962 11.3479 8.71189C11.4677 8.86727 11.6676 8.98414 11.8675 8.98414C11.9872 8.98414 12.1071 8.94537 12.1871 8.86754L16.0629 6.37959C16.2226 6.26299 16.3427 6.10734 16.3427 5.91319C16.3427 5.71875 16.2229 5.52433 16.0629 5.44678L12.1871 2.95883C11.9073 2.7644 11.5477 2.84222 11.3479 3.11421C11.148 3.38646 11.228 3.73626 11.5076 3.9307L13.8649 5.4468C6.0734 6.34083 0 12.7941 0 20.6077C0 29.0045 7.03228 35.8853 15.703 35.8853C16.5422 35.8853 17.3412 35.8074 18.1802 35.6908H18.22C20.2979 35.3798 22.2555 34.6411 24.0538 33.5527C24.3337 33.3973 24.4133 33.0085 24.2536 32.7362C24.0143 32.4642 23.6541 32.3861 23.3746 32.5415Z" fill="white"/>
<path d="M30.7647 20.0242C30.445 20.0242 30.1655 20.2964 30.1655 20.6072C30.1655 21.5012 30.0855 22.3955 29.8857 23.2895C29.8056 23.6006 30.0454 23.9116 30.365 23.9891H30.4849C30.7647 23.9891 31.0044 23.7947 31.0841 23.5227C31.284 22.5897 31.364 21.6178 31.364 20.646C31.364 20.2576 31.0841 20.0242 30.7647 20.0242Z" fill="white"/>
<path d="M30.7664 5.21387C30.1672 5.21387 29.6875 5.68027 29.6875 6.26354C29.6875 6.61334 29.8874 6.92436 30.167 7.11877C30.3267 7.23536 30.5667 7.31319 30.7662 7.31319C30.966 7.31319 31.2057 7.23536 31.3654 7.11877C31.6452 6.92435 31.8448 6.61332 31.8448 6.26354C31.8451 5.71931 31.3655 5.21387 30.7664 5.21387Z" fill="white"/>
<path d="M33.9221 8.90638C35.1209 8.01235 35.88 6.57379 35.88 4.98015C35.88 2.18121 33.4825 -0.112298 30.5658 0.00425479C27.9286 0.0820796 25.731 2.25896 25.6509 4.82472C25.6111 6.45744 26.37 7.93473 27.5688 8.8675C28.1681 9.33391 28.5279 10.0338 28.5279 10.8112V11.4333H28.408C27.8885 11.4333 27.4489 11.8609 27.4489 12.3663V12.4829C27.4489 12.9884 27.8885 13.416 28.408 13.416C27.8885 13.416 27.4489 13.8436 27.4489 14.3491V14.4656C27.4489 14.9711 27.8885 15.3986 28.408 15.3986L28.7277 15.3984C28.7277 16.2149 29.4069 17.2255 30.246 17.2255H31.3249C32.1642 17.2255 32.8434 16.1758 32.8434 15.3984H33.123C33.6425 15.3984 34.082 14.9708 34.082 14.4653V14.3487C34.082 13.8433 33.6425 13.4157 33.123 13.4157C33.6425 13.4157 34.082 12.988 34.082 12.4826V12.366C34.082 11.8606 33.6425 11.4329 33.123 11.4329H33.0031V10.8109C33.0031 10.0338 33.3228 9.33406 33.9221 8.90638ZM31.3649 8.4012V11.3945H30.1661V8.4012C29.2071 8.12895 28.4879 7.27399 28.4879 6.26305C28.4879 5.05802 29.4869 4.04708 30.7656 4.04708C32.0041 4.04708 33.0432 5.05774 33.0432 6.26305C33.043 7.27371 32.3239 8.16795 31.3649 8.4012Z" fill="white"/>
<path d="M22.6544 9.06213L24.5323 5.91339L22.6544 2.76465H18.9385L17.0605 5.91339L18.9385 9.06213H22.6544ZM20.7767 4.47483C21.5757 4.47483 22.255 5.09688 22.255 5.91311C22.255 6.69052 21.6156 7.35139 20.7767 7.35139C19.9776 7.35139 19.2983 6.72934 19.2983 5.91311C19.3383 5.13598 19.9773 4.47483 20.7767 4.47483Z" fill="white"/>
</g>
<defs>
<clipPath id="clip0_3092_9907">
<rect width="36" height="36" fill="white"/>
</clipPath>
</defs>
</svg>
