<svg width="36" height="36" viewBox="0 0 36 36" fill="none" xmlns="http://www.w3.org/2000/svg">
<g clip-path="url(#clip0_3092_9917)">
<path fill-rule="evenodd" clip-rule="evenodd" d="M15.6678 26.3989C15.9652 31.7481 20.4026 36 25.8261 36C27.2833 36 28.6693 35.6925 29.9238 35.1399L33.0825 35.9296C33.8831 36.13 34.7291 35.8951 35.3121 35.3121C35.8951 34.7291 36.13 33.8831 35.9296 33.0825L35.1399 29.923C35.6925 28.6701 36 27.2833 36 25.8261C36 20.4026 31.7481 15.9652 26.3989 15.6678C26.5367 14.9001 26.6087 14.1105 26.6087 13.3043C26.6087 5.96113 20.6475 0 13.3043 0C5.96113 0 0 5.96113 0 13.3043C0 15.5082 0.536864 17.5868 1.48695 19.4181L0.120527 23.5182C-0.160429 24.3618 0.058694 25.2923 0.68791 25.9208C1.31635 26.55 2.24688 26.7691 3.09052 26.4882L7.1906 25.1217C9.02113 26.0718 11.1005 26.6087 13.3043 26.6087C14.1105 26.6087 14.9001 26.5367 15.6678 26.3989ZM26.0225 17.2197C24.7305 21.4161 21.4161 24.7305 17.2197 26.0225C17.3238 30.6829 21.1406 34.4348 25.8261 34.4348C27.144 34.4348 28.3938 34.1382 29.5114 33.6075C29.675 33.5293 29.8605 33.5113 30.0365 33.5551L33.462 34.4113C33.7289 34.4778 34.0114 34.3995 34.2055 34.2055C34.3995 34.0114 34.4778 33.7289 34.4113 33.462L33.5551 30.0365C33.5113 29.8605 33.5293 29.675 33.6075 29.5114C34.1382 28.3938 34.4348 27.144 34.4348 25.8261C34.4348 21.1406 30.6829 17.3238 26.0225 17.2197ZM3.07879 19.5934C3.14766 19.386 3.12731 19.1591 3.02087 18.9681C2.09348 17.2878 1.56522 15.3571 1.56522 13.3043C1.56522 6.82513 6.82513 1.56522 13.3043 1.56522C19.7835 1.56522 25.0435 6.82513 25.0435 13.3043C25.0435 19.7835 19.7835 25.0435 13.3043 25.0435C11.2515 25.0435 9.32087 24.5152 7.6406 23.5878C7.44966 23.4814 7.22272 23.4611 7.01532 23.5299L2.59512 25.0036C2.31417 25.0967 2.00426 25.0239 1.79452 24.8142C1.58478 24.6044 1.512 24.2945 1.60512 24.0135L3.07879 19.5934Z" fill="white"/>
<path d="M22.6967 26.6087C23.1289 26.6087 23.4793 26.2583 23.4793 25.8261C23.4793 25.3938 23.1289 25.0435 22.6967 25.0435C22.2645 25.0435 21.9141 25.3938 21.9141 25.8261C21.9141 26.2583 22.2645 26.6087 22.6967 26.6087Z" fill="white"/>
<path d="M25.8256 26.6087C26.2578 26.6087 26.6082 26.2583 26.6082 25.8261C26.6082 25.3938 26.2578 25.0435 25.8256 25.0435C25.3934 25.0435 25.043 25.3938 25.043 25.8261C25.043 26.2583 25.3934 26.6087 25.8256 26.6087Z" fill="white"/>
<path d="M28.9574 26.6087C29.3896 26.6087 29.74 26.2583 29.74 25.8261C29.74 25.3938 29.3896 25.0435 28.9574 25.0435C28.5252 25.0435 28.1748 25.3938 28.1748 25.8261C28.1748 26.2583 28.5252 26.6087 28.9574 26.6087Z" fill="white"/>
<path d="M21.0532 11.0677H20.1844V10.3598C20.1844 8.71869 18.8329 7.36718 17.1918 7.36718H13.5879V5.40431C13.5879 5.05036 13.2983 4.76074 12.9444 4.76074C12.5904 4.76074 12.3008 5.05036 12.3008 5.40431V7.36718H8.69682C7.05573 7.36718 5.70425 8.71869 5.70425 10.3598V11.0677H4.83542C3.93445 11.0677 3.19434 11.8078 3.19434 12.7088V14.9934C3.19434 15.8944 3.93445 16.6345 4.83542 16.6345H5.70425V17.3425C5.70425 18.9835 7.05573 20.335 8.69682 20.335H17.1597C18.8008 20.335 20.1523 18.9835 20.1523 17.3425V16.6345H21.0532C21.9543 16.6345 22.6943 15.8944 22.6943 14.9934V12.7088C22.6943 11.7756 21.9543 11.0677 21.0532 11.0677ZM4.83542 15.3152C4.64236 15.3152 4.48147 15.1543 4.48147 14.9613V12.6766C4.48147 12.4835 4.64236 12.3226 4.83542 12.3226H5.70425V15.3152H4.83542ZM18.8651 17.3103C18.8651 18.2434 18.0929 19.0157 17.1597 19.0157H8.69682C7.76363 19.0157 6.99136 18.2434 6.99136 17.3103V10.3598C6.99136 9.42659 7.76363 8.65432 8.69682 8.65432H17.1597C18.0929 8.65432 18.8651 9.42659 18.8651 10.3598V17.3103ZM21.375 14.9934C21.375 15.1865 21.2141 15.3474 21.0211 15.3474H20.1523V12.3548H21.0532C21.2463 12.3548 21.4072 12.5157 21.4072 12.7088V14.9934H21.375Z" fill="white"/>
<path d="M10.3701 13.3846C11.1165 13.3846 11.7215 12.7795 11.7215 12.0331C11.7215 11.2867 11.1165 10.6816 10.3701 10.6816C9.62364 10.6816 9.01855 11.2867 9.01855 12.0331C9.01855 12.7795 9.62364 13.3846 10.3701 13.3846Z" fill="white"/>
<path d="M15.5175 13.3846C16.2639 13.3846 16.869 12.7795 16.869 12.0331C16.869 11.2867 16.2639 10.6816 15.5175 10.6816C14.7711 10.6816 14.166 11.2867 14.166 12.0331C14.166 12.7795 14.7711 13.3846 15.5175 13.3846Z" fill="white"/>
<path d="M15.7437 14.7037C15.4219 14.5429 15.0358 14.7037 14.8748 15.0255C14.6174 15.6047 13.813 16.0231 12.9442 16.0231C12.0753 16.0231 11.2709 15.6047 11.0135 15.0255C10.8526 14.7037 10.4664 14.5429 10.1447 14.7037C9.8229 14.8646 9.66198 15.2508 9.8229 15.5726C10.3055 16.6345 11.5605 17.3102 12.9442 17.3102C14.3278 17.3102 15.5828 16.6023 16.0654 15.5726C16.1942 15.2508 16.0654 14.8646 15.7437 14.7037Z" fill="white"/>
</g>
<defs>
<clipPath id="clip0_3092_9917">
<rect width="36" height="36" fill="white"/>
</clipPath>
</defs>
</svg>
