<svg width="36" height="36" viewBox="0 0 36 36" fill="none" xmlns="http://www.w3.org/2000/svg">
<path fill-rule="evenodd" clip-rule="evenodd" d="M8.39288 20.5899C8.28726 20.5899 8.18597 20.547 8.11129 20.4706C8.03661 20.3942 7.99465 20.2907 7.99465 20.1826C7.99465 20.0746 8.03661 19.971 8.11129 19.8946C8.18597 19.8182 8.28726 19.7753 8.39288 19.7753H21.0465C21.1522 19.7753 21.2535 19.8182 21.328 19.8946C21.4027 19.971 21.4448 20.0746 21.4448 20.1826C21.4448 20.2907 21.4027 20.3942 21.328 20.4706C21.2535 20.547 21.1522 20.5899 21.0465 20.5899H8.39288ZM8.39288 19.1832C8.33956 19.1848 8.28646 19.1756 8.23672 19.1558C8.18698 19.1361 8.1416 19.1064 8.1033 19.0685C8.06501 19.0305 8.03455 18.985 8.01376 18.9348C7.99296 18.8846 7.98225 18.8306 7.98225 18.7761C7.98225 18.7215 7.99296 18.6674 8.01376 18.6172C8.03455 18.567 8.06501 18.5216 8.1033 18.4836C8.1416 18.4456 8.18698 18.4159 8.23672 18.3962C8.28646 18.3766 8.33956 18.3672 8.39288 18.3689H21.0465C21.0998 18.3672 21.1529 18.3766 21.2027 18.3962C21.2524 18.4159 21.2978 18.4456 21.336 18.4836C21.3743 18.5216 21.4048 18.567 21.4256 18.6172C21.4465 18.6674 21.4571 18.7215 21.4571 18.7761C21.4571 18.8306 21.4465 18.8846 21.4256 18.9348C21.4048 18.985 21.3743 19.0305 21.336 19.0685C21.2978 19.1064 21.2524 19.1361 21.2027 19.1558C21.1529 19.1756 21.0998 19.1848 21.0465 19.1832H8.39288ZM8.39288 14.8004H13.8704C13.9738 14.7971 14.0719 14.7528 14.1439 14.6768C14.2159 14.6008 14.2561 14.4992 14.2561 14.3933C14.2561 14.2875 14.2159 14.1858 14.1439 14.1099C14.0719 14.0339 13.9738 13.9895 13.8704 13.9862H8.39288C8.33956 13.9845 8.28646 13.9938 8.23672 14.0135C8.18698 14.0332 8.1416 14.0629 8.1033 14.1009C8.06501 14.1389 8.03455 14.1843 8.01376 14.2345C7.99296 14.2848 7.98225 14.3388 7.98225 14.3933C7.98225 14.4479 7.99296 14.5019 8.01376 14.5521C8.03455 14.6024 8.06501 14.6478 8.1033 14.6858C8.1416 14.7238 8.18698 14.7535 8.23672 14.7732C8.28646 14.7929 8.33956 14.8021 8.39288 14.8004ZM8.39288 13.3941C8.33956 13.3958 8.28646 13.3865 8.23672 13.3668C8.18698 13.3471 8.1416 13.3174 8.1033 13.2794C8.06501 13.2414 8.03455 13.196 8.01376 13.1457C7.99296 13.0955 7.98225 13.0415 7.98225 12.987C7.98225 12.9324 7.99296 12.8784 8.01376 12.8282C8.03455 12.7779 8.06501 12.7325 8.1033 12.6945C8.1416 12.6565 8.18698 12.6268 8.23672 12.6071C8.28646 12.5874 8.33956 12.5782 8.39288 12.5799H13.031C13.0843 12.5782 13.1374 12.5874 13.1872 12.6071C13.2369 12.6268 13.2823 12.6565 13.3206 12.6945C13.3589 12.7325 13.3893 12.7779 13.4101 12.8282C13.4309 12.8784 13.4416 12.9324 13.4416 12.987C13.4416 13.0415 13.4309 13.0955 13.4101 13.1457C13.3893 13.196 13.3589 13.2414 13.3206 13.2794C13.2823 13.3174 13.2369 13.3471 13.1872 13.3668C13.1374 13.3865 13.0843 13.3958 13.031 13.3941H8.39288ZM6.18351 6.9966C5.9787 6.78702 5.70917 6.65656 5.42085 6.62745C5.13253 6.59834 4.84326 6.67239 4.60234 6.83697C4.36141 7.00155 4.18374 7.24648 4.09959 7.53002C4.01544 7.81357 4.03003 8.11819 4.14086 8.39198C4.25169 8.66575 4.45191 8.89176 4.70741 9.03147C4.96291 9.17118 5.25786 9.21597 5.54203 9.15817C5.82619 9.10039 6.08197 8.94362 6.26577 8.71457C6.44959 8.48553 6.55006 8.19838 6.55007 7.90206V7.89297L5.66786 8.65028C5.59224 8.71503 5.49572 8.74864 5.39717 8.74455C5.29862 8.74046 5.2051 8.69896 5.13484 8.62816L4.36891 7.85544C4.29611 7.77945 4.25538 7.67729 4.25545 7.5709C4.25554 7.46452 4.29644 7.36242 4.36936 7.28655C4.44227 7.21068 4.54137 7.1671 4.64537 7.16518C4.74937 7.16326 4.84996 7.20316 4.92549 7.2763L5.43418 7.78986L6.25921 7.08114C6.23527 7.05191 6.21016 7.02386 6.18197 6.9966H6.18351ZM5.29822 5.8075C5.56726 5.80722 5.83369 5.86127 6.08225 5.96655C6.33082 6.07184 6.5566 6.22627 6.74667 6.42101C6.78916 6.46487 6.8301 6.5103 6.86872 6.55771L7.3384 6.15436C7.41934 6.08611 7.52338 6.05335 7.62782 6.06323C7.73227 6.0731 7.82867 6.12481 7.89601 6.20707C7.96334 6.28934 7.99614 6.39549 7.98727 6.50238C7.97839 6.60928 7.92857 6.70826 7.84865 6.77775L7.2573 7.285C7.38387 7.70622 7.37727 8.15754 7.23845 8.57471C7.09963 8.99187 6.83565 9.35361 6.48412 9.60839C6.1326 9.86319 5.71142 9.99804 5.28059 9.99375C4.84976 9.98947 4.43124 9.84627 4.08461 9.58454C3.73798 9.32281 3.48094 8.9559 3.35007 8.53605C3.21919 8.11621 3.22119 7.66483 3.35574 7.2462C3.49029 6.82758 3.75055 6.46305 4.09946 6.20451C4.44838 5.94598 4.86815 5.80663 5.29899 5.80631L5.29822 5.8075ZM16.2868 25.2223C16.2334 25.2239 16.1803 25.2147 16.1305 25.195C16.0808 25.1753 16.0354 25.1455 15.9971 25.1077C15.9589 25.0697 15.9284 25.0242 15.9076 24.9739C15.8868 24.9237 15.8761 24.8698 15.8761 24.8152C15.8761 24.7606 15.8868 24.7066 15.9076 24.6564C15.9284 24.6061 15.9589 24.5606 15.9971 24.5228C16.0354 24.4848 16.0808 24.455 16.1305 24.4353C16.1803 24.4156 16.2334 24.4064 16.2868 24.4081H16.4853C16.5386 24.4064 16.5917 24.4156 16.6414 24.4353C16.6911 24.455 16.7365 24.4848 16.7748 24.5228C16.8131 24.5606 16.8436 24.6061 16.8644 24.6564C16.8851 24.7066 16.8959 24.7606 16.8959 24.8152C16.8959 24.8698 16.8851 24.9237 16.8644 24.9739C16.8436 25.0242 16.8131 25.0697 16.7748 25.1077C16.7365 25.1455 16.6911 25.1753 16.6414 25.195C16.5917 25.2147 16.5386 25.2239 16.4853 25.2223H16.2868ZM26.5954 29.9444H6.37548C6.12059 29.9453 5.87639 30.0492 5.69615 30.2335C5.5159 30.4179 5.41424 30.6676 5.41333 30.9284V31.912H27.5576V30.9284C27.5567 30.6676 27.455 30.4179 27.2747 30.2335C27.0945 30.0492 26.8503 29.9453 26.5954 29.9444ZM14.8414 29.1301H18.1296V26.7096H14.8414V29.1301ZM6.18351 12.7849C5.97874 12.5754 5.70926 12.445 5.42103 12.4159C5.13279 12.3869 4.84362 12.4609 4.60279 12.6255C4.36196 12.7901 4.18437 13.035 4.10029 13.3184C4.01621 13.6019 4.03084 13.9064 4.14168 14.1801C4.25252 14.4538 4.45272 14.6797 4.70815 14.8193C4.9636 14.959 5.25848 15.0037 5.54254 14.9459C5.82661 14.888 6.08229 14.7313 6.266 14.5023C6.44972 14.2733 6.55011 13.9862 6.55007 13.6899C6.55034 13.5218 6.51809 13.3553 6.45518 13.2C6.39227 13.0446 6.29995 12.9036 6.18351 12.7849ZM5.29822 11.5954C5.77181 11.5955 6.23074 11.7635 6.59679 12.0708C6.96286 12.3781 7.21342 12.8057 7.30579 13.2808C7.39815 13.7559 7.32663 14.249 7.10336 14.6762C6.88011 15.1034 6.51895 15.4382 6.08141 15.6235C5.64388 15.8089 5.15705 15.8334 4.70383 15.6928C4.25063 15.5522 3.85909 15.2553 3.59595 14.8526C3.3328 14.4499 3.21431 13.9663 3.26066 13.4842C3.30701 13.0022 3.51535 12.5515 3.85016 12.2089C4.04019 12.0142 4.26591 11.8598 4.5144 11.7545C4.76289 11.6492 5.02926 11.5952 5.29822 11.5954ZM5.29822 18.199C5.05067 18.199 4.80866 18.2741 4.60282 18.4148C4.39697 18.5554 4.23652 18.7553 4.14175 18.9892C4.04698 19.2232 4.02214 19.4805 4.07038 19.7289C4.11862 19.9773 4.23776 20.2053 4.41276 20.3844C4.58776 20.5635 4.81074 20.6856 5.05352 20.735C5.2963 20.7846 5.548 20.7594 5.77675 20.6626C6.0055 20.5658 6.20107 20.4018 6.33872 20.1913C6.47637 19.9809 6.54991 19.7334 6.55007 19.4803C6.55012 19.3121 6.51777 19.1456 6.45487 18.9902C6.39199 18.8348 6.29978 18.6936 6.18352 18.5747C6.06727 18.4559 5.92925 18.3616 5.77734 18.2971C5.62543 18.2328 5.46264 18.199 5.29822 18.199ZM5.29822 17.3844C5.7031 17.3844 6.0989 17.5072 6.43555 17.7373C6.7722 17.9673 7.03459 18.2944 7.18953 18.6769C7.34447 19.0596 7.38501 19.4805 7.30603 19.8867C7.22704 20.2929 7.03207 20.666 6.74577 20.9587C6.45946 21.2516 6.09471 21.451 5.6976 21.5318C5.3005 21.6125 4.88889 21.5711 4.51482 21.4126C4.14076 21.2542 3.82104 20.9858 3.59609 20.6415C3.37115 20.2971 3.25108 19.8924 3.25108 19.4783C3.25108 18.923 3.46676 18.3904 3.85067 17.9977C4.23459 17.6051 4.75529 17.3844 5.29822 17.3844ZM8.39288 9.39298H12.6722C12.7756 9.38968 12.8737 9.34535 12.9457 9.26937C13.0177 9.19338 13.058 9.0917 13.058 8.98588C13.058 8.88005 13.0177 8.77839 12.9457 8.7024C12.8737 8.62641 12.7756 8.58207 12.6722 8.57879H8.39288C8.33956 8.57709 8.28646 8.58636 8.23672 8.60605C8.18698 8.62574 8.1416 8.65546 8.1033 8.69343C8.06501 8.7314 8.03455 8.77685 8.01376 8.8271C7.99296 8.87733 7.98225 8.93132 7.98225 8.98588C7.98225 9.04044 7.99296 9.09444 8.01376 9.14467C8.03455 9.19492 8.06501 9.24036 8.1033 9.27834C8.1416 9.3163 8.18698 9.34602 8.23672 9.36571C8.28646 9.38541 8.33956 9.39468 8.39288 9.39298ZM8.39288 7.98621H13.031C13.0843 7.9879 13.1374 7.97863 13.1872 7.95893C13.2369 7.93925 13.2823 7.90953 13.3206 7.87156C13.3589 7.83359 13.3893 7.78814 13.4101 7.7379C13.4309 7.68766 13.4416 7.63365 13.4416 7.57911C13.4416 7.52455 13.4309 7.47055 13.4101 7.42031C13.3893 7.37008 13.3589 7.32463 13.3206 7.28665C13.2823 7.24869 13.2369 7.21897 13.1872 7.19927C13.1374 7.17958 13.0843 7.1703 13.031 7.17201H8.39288C8.33956 7.1703 8.28646 7.17958 8.23672 7.19927C8.18698 7.21897 8.1416 7.24869 8.1033 7.28665C8.06501 7.32463 8.03455 7.37008 8.01376 7.42031C7.99296 7.47055 7.98225 7.52455 7.98225 7.57911C7.98225 7.63365 7.99296 7.68766 8.01376 7.7379C8.03455 7.78814 8.06501 7.83359 8.1033 7.87156C8.1416 7.90953 8.18698 7.93925 8.23672 7.95893C8.28646 7.97863 8.33956 7.9879 8.39288 7.98621ZM28.4312 13.5244C29.7632 13.1645 31.1803 13.3593 32.3721 14.0661C33.5639 14.7729 34.4331 15.9341 34.7893 17.2952C35.1865 18.8114 34.9319 19.9914 34.259 21.3568C33.5686 22.5712 32.4353 23.456 31.108 23.8175C28.1922 24.6159 25.6225 22.8879 24.7255 20.0333C23.9569 17.0546 25.6471 14.439 28.4312 13.5244ZM31.1737 12.7075C29.9041 12.3931 28.5691 12.5108 27.3709 13.0429C26.1727 13.5749 25.177 14.4922 24.5346 15.6554C23.8924 16.8188 23.6386 18.1646 23.8119 19.4887C23.9852 20.8129 24.5761 22.0431 25.4949 22.9926H1.79569V4.15224C1.7926 3.79802 1.92257 3.45609 2.15876 3.19701C2.26733 3.07723 2.39874 2.98146 2.54489 2.91563C2.69104 2.84979 2.84883 2.81527 3.00852 2.8142H29.9612C30.1209 2.81534 30.2787 2.84989 30.4249 2.91572C30.5709 2.98156 30.7023 3.07728 30.811 3.19701C31.0465 3.45566 31.1764 3.79677 31.1737 4.15027V12.7075ZM31.9698 21.2354C32.2351 20.9957 32.4616 20.7142 32.6407 20.4018C33.0318 19.718 33.1786 18.9164 33.0563 18.1341C32.9339 17.3517 32.5499 16.6371 31.9698 16.112V21.2354ZM31.1752 15.579C30.6666 15.3368 30.1064 15.2295 29.5465 15.2673C28.9865 15.305 28.445 15.4865 27.9717 15.795C27.4986 16.1035 27.109 16.529 26.8393 17.0321C26.5694 17.5354 26.428 18.1 26.428 18.6739C26.428 19.2478 26.5694 19.8124 26.8393 20.3157C27.109 20.8189 27.4986 21.2443 27.9717 21.5528C28.445 21.8613 28.9865 22.0428 29.5465 22.0805C30.1064 22.1183 30.6666 22.0111 31.1752 21.7687V15.579ZM28.69 14.5887C27.9007 14.8054 27.1921 15.2566 26.6533 15.8852C26.1148 16.5139 25.7704 17.2917 25.664 18.1204C25.5574 18.9491 25.6936 19.7915 26.0551 20.5412C26.4166 21.2907 26.9874 21.9139 27.695 22.3318C28.4028 22.7499 29.2158 22.9438 30.0313 22.8893C30.8468 22.8347 31.6282 22.5341 32.2767 22.0254C32.9252 21.5168 33.4117 20.8229 33.6746 20.0315C33.9377 19.2401 33.9653 18.3867 33.7542 17.5793C33.4701 16.496 32.7771 15.5726 31.8274 15.0117C30.8778 14.451 29.7493 14.2988 28.69 14.5887ZM33.2416 28.0255L31.3166 28.553L32.3011 32.3103C32.3575 32.5268 32.5665 32.8092 32.8176 32.7401L33.9891 32.4193C34.2401 32.3506 34.2823 31.9981 34.2258 31.7821L33.2416 28.0255ZM30.1212 24.8023L30.3301 25.6012C30.3513 25.6671 30.3567 25.6706 30.4236 25.656L32.6202 25.0544C32.6272 25.0526 32.6336 25.0494 32.6394 25.0449C32.645 25.0406 32.6499 25.0351 32.6535 25.0288C32.6571 25.0225 32.6594 25.0154 32.6603 25.0081C32.6612 25.0009 32.6607 24.9935 32.6588 24.9864L32.4437 24.1655C31.7191 24.5346 30.929 24.7512 30.1212 24.8023ZM29.5873 25.8975C29.58 25.8764 29.5735 25.8547 29.5681 25.833L29.2977 24.7952C28.2895 24.715 27.3178 24.3752 26.4726 23.8077H1.79569V24.563C1.78409 24.9044 1.9052 25.2364 2.13251 25.4868C2.35982 25.737 2.6748 25.885 3.00852 25.8982H29.5862L29.5873 25.8975ZM32.3077 25.982L31.1278 26.3059L31.4236 27.6823L32.726 27.3267L32.3092 25.9836L32.3077 25.982ZM33.1543 23.7377L33.4247 24.7763C33.4705 24.9542 33.4602 25.1424 33.3952 25.314C33.3303 25.4856 33.2142 25.6318 33.0631 25.7319L33.4946 27.1217C33.5866 27.1154 33.6778 27.142 33.7527 27.1969C33.8276 27.2518 33.8815 27.3316 33.9053 27.4227L34.9921 31.5708C35.0807 31.9006 35.0534 32.2518 34.915 32.5631C34.8481 32.7177 34.7486 32.8553 34.6236 32.9659C34.4988 33.0766 34.3514 33.1576 34.1923 33.2031L33.0207 33.5242C32.8606 33.5662 32.6935 33.5713 32.5311 33.5393C32.3689 33.5074 32.2156 33.4391 32.0821 33.3394C31.8101 33.1401 31.615 32.8496 31.5306 32.5185L30.4456 28.3689C30.4219 28.2779 30.4297 28.1812 30.4678 28.0955C30.5059 28.0099 30.5719 27.9403 30.6545 27.8988L30.3885 26.6591C28.3354 26.6765 21.3907 26.7076 18.9256 26.7076V29.1285H26.5954C27.0614 29.1297 27.508 29.3195 27.8375 29.6565C28.1669 29.9936 28.3525 30.4503 28.3536 30.9268V32.3194C28.3536 32.4274 28.3115 32.5309 28.2368 32.6073C28.1623 32.6837 28.0609 32.7265 27.9554 32.7267H5.01703C4.96462 32.7268 4.9127 32.7164 4.86423 32.696C4.81576 32.6756 4.77169 32.6456 4.73456 32.6078C4.69742 32.57 4.66795 32.5251 4.64783 32.4755C4.62769 32.426 4.61731 32.3729 4.61725 32.3194V30.9284C4.61839 30.4518 4.80398 29.9951 5.13347 29.6581C5.46296 29.3211 5.90951 29.1313 6.37548 29.1301H14.0452V26.7096H3.00852C2.74063 26.7087 2.47578 26.6513 2.23036 26.5415C1.98494 26.4316 1.76417 26.2714 1.5817 26.0709C1.2068 25.6622 0.998715 25.1225 1.00001 24.5622V4.15224C0.998824 3.59117 1.20765 3.05091 1.58363 2.64235C1.76564 2.44141 1.98597 2.28074 2.23104 2.17026C2.4761 2.05978 2.7407 2.00184 3.00852 2H29.9612C30.2292 2.00131 30.4942 2.05882 30.7395 2.16896C30.9849 2.27911 31.2057 2.43955 31.388 2.64038C31.7639 3.04901 31.9726 3.58925 31.9713 4.15027V12.967C32.9829 13.3777 33.8665 14.062 34.5272 14.9467C35.188 15.8313 35.6013 16.883 35.7228 17.9893C35.8444 19.0955 35.6695 20.2148 35.2171 21.2274C34.7648 22.2399 34.0517 23.1075 33.1543 23.7377Z" fill="#FF7A4E"/>
<path fill-rule="evenodd" clip-rule="evenodd" d="M23.0823 13.9762L23.7869 13.2477L23.2604 12.7144C23.1957 12.6487 23.1552 12.5623 23.1455 12.4696C23.1359 12.377 23.1578 12.2837 23.2074 12.2056C23.4774 11.7784 23.6675 11.3037 23.7682 10.8055C23.7843 10.7118 23.832 10.6268 23.9031 10.5654C23.9742 10.504 24.0642 10.4702 24.1573 10.4697L24.8977 10.4658L24.8927 9.43866L24.1777 9.44261C24.0821 9.44951 23.9872 9.42081 23.9105 9.36178C23.8339 9.30275 23.7808 9.21739 23.7609 9.12143C23.6562 8.62031 23.4605 8.1437 23.1842 7.71624C23.134 7.63828 23.1115 7.54501 23.1205 7.45206C23.1295 7.35913 23.1695 7.27218 23.2337 7.20583L23.7536 6.66856L23.0418 5.94799L22.5203 6.48645C22.456 6.55252 22.3715 6.59399 22.2809 6.60384C22.1904 6.6137 22.0992 6.59136 22.0229 6.54057C21.605 6.26445 21.1407 6.06996 20.6536 5.96695C20.5619 5.95054 20.4788 5.9017 20.4189 5.82897C20.359 5.75624 20.326 5.66427 20.3256 5.56914L20.3217 4.81183L19.3175 4.81696L19.3209 5.54821C19.3277 5.64605 19.2997 5.74314 19.242 5.8215C19.1843 5.89985 19.1008 5.95419 19.007 5.97446C18.5171 6.08168 18.0513 6.28173 17.6334 6.56427C17.5572 6.6157 17.466 6.63874 17.3751 6.62953C17.2842 6.62033 17.1992 6.57943 17.1344 6.51371L16.6091 5.98197L15.9041 6.71005L16.431 7.24336C16.4956 7.3091 16.5361 7.39553 16.5457 7.48817C16.5554 7.58082 16.5335 7.67404 16.4839 7.75219C16.2145 8.18014 16.0251 8.65555 15.9254 9.15423C15.9093 9.2479 15.8616 9.33279 15.7905 9.3941C15.7194 9.4554 15.6294 9.48921 15.5364 9.48962L14.796 9.49358L14.801 10.5207L15.5156 10.5171C15.6114 10.5102 15.7063 10.5388 15.783 10.5979C15.8597 10.6569 15.9129 10.7423 15.9328 10.8383C16.0376 11.3393 16.2332 11.8158 16.5095 12.2431C16.5597 12.3211 16.5822 12.4144 16.5731 12.5074C16.5641 12.6003 16.524 12.6873 16.4596 12.7535L15.9398 13.2908L16.6519 14.0118L17.1734 13.4729C17.2377 13.4069 17.3222 13.3655 17.4128 13.3556C17.5033 13.3458 17.5945 13.3681 17.6708 13.4188C18.0884 13.6944 18.5523 13.8883 19.039 13.9908C19.1306 14.0072 19.2137 14.0561 19.2737 14.1288C19.3338 14.2015 19.3668 14.2935 19.3673 14.3886L19.3712 15.1459L20.3755 15.1408L20.3716 14.41C20.3648 14.3121 20.3928 14.215 20.4506 14.1366C20.5083 14.0582 20.5917 14.0038 20.6856 13.9833C21.1756 13.8762 21.6415 13.6761 22.0595 13.3935C22.1357 13.3421 22.227 13.319 22.3178 13.3283C22.4087 13.3376 22.4937 13.3786 22.5585 13.4445L23.0838 13.9762H23.0823ZM24.6296 13.531L23.3666 14.8347C23.3298 14.8724 23.2861 14.9024 23.2379 14.9228C23.1898 14.9433 23.1381 14.9538 23.086 14.9538C23.0338 14.9538 22.9823 14.9433 22.934 14.9228C22.886 14.9024 22.8421 14.8724 22.8053 14.8347L22.2198 14.2421C21.8873 14.4365 21.533 14.5886 21.1645 14.6952L21.1688 15.5394C21.169 15.5926 21.159 15.6455 21.1393 15.6948C21.1196 15.7441 21.0906 15.789 21.0539 15.8267C21.0173 15.8646 20.9737 15.8947 20.9256 15.9152C20.8777 15.9359 20.8261 15.9465 20.774 15.9468L18.9784 15.9562C18.9262 15.9564 18.8747 15.9461 18.8264 15.9259C18.7782 15.9057 18.7344 15.876 18.6974 15.8386C18.6605 15.8009 18.631 15.7564 18.611 15.7072C18.5908 15.6581 18.5804 15.6054 18.5801 15.552L18.5759 14.7082C18.2066 14.6056 17.851 14.4573 17.5168 14.2666L16.9354 14.8674C16.861 14.9436 16.76 14.9863 16.6549 14.9863C16.5496 14.9863 16.4486 14.9436 16.3742 14.8674L15.0995 13.5752C15.0626 13.5376 15.0335 13.4929 15.0134 13.4436C14.9935 13.3944 14.9832 13.3416 14.9832 13.2882C14.9832 13.2349 14.9935 13.1821 15.0134 13.1329C15.0335 13.0836 15.0626 13.0389 15.0995 13.0012L15.679 12.4023C15.489 12.0624 15.3402 11.7002 15.236 11.3235L14.4105 11.3278C14.3585 11.328 14.3068 11.3177 14.2586 11.2975C14.2103 11.2773 14.1665 11.2476 14.1296 11.2101C14.0926 11.1726 14.0633 11.1279 14.0431 11.0788C14.023 11.0297 14.0125 10.9769 14.0123 10.9237L14 9.0922C13.9996 8.98463 14.041 8.88133 14.1152 8.80496C14.1893 8.7286 14.2899 8.68543 14.3951 8.68491L15.2201 8.68057C15.3204 8.30287 15.4655 7.9391 15.6519 7.59733L15.0644 7.00475C14.9901 6.92854 14.9483 6.82524 14.9483 6.71756C14.9483 6.60986 14.9901 6.50656 15.0644 6.43035L16.3279 5.12668C16.3647 5.08897 16.4085 5.05905 16.4566 5.03864C16.5048 5.01823 16.5564 5.00773 16.6085 5.00773C16.6607 5.00773 16.7122 5.01823 16.7604 5.03864C16.8085 5.05905 16.8522 5.08897 16.8891 5.12668L17.4746 5.71926C17.8064 5.52317 18.1601 5.36902 18.528 5.26021L18.5238 4.41599C18.5234 4.30841 18.5648 4.20512 18.639 4.12875C18.713 4.05239 18.8137 4.00921 18.9189 4.00869L20.7149 4C20.8201 3.99969 20.9211 4.04206 20.9958 4.11783C21.0704 4.1936 21.1127 4.29656 21.1132 4.40413L21.1175 5.24836C21.4867 5.35067 21.8425 5.49887 22.1765 5.68963L22.7558 5.08915C22.7927 5.05142 22.8366 5.02151 22.8847 5.00109C22.9329 4.98068 22.9846 4.97017 23.0368 4.97017C23.0888 4.97017 23.1405 4.98068 23.1887 5.00109C23.2368 5.02151 23.2807 5.05142 23.3176 5.08915L24.5921 6.38097C24.629 6.41864 24.6583 6.46339 24.6782 6.51263C24.6982 6.56187 24.7085 6.61466 24.7085 6.66797C24.7085 6.72128 24.6982 6.77406 24.6782 6.82331C24.6583 6.87256 24.629 6.91729 24.5921 6.95498L24.0128 7.55387C24.2046 7.89316 24.3553 8.25506 24.4616 8.63157L25.287 8.62723C25.3391 8.62697 25.3907 8.63721 25.4389 8.65736C25.4871 8.67751 25.5309 8.70719 25.568 8.74469C25.605 8.78218 25.6343 8.82677 25.6545 8.87588C25.6745 8.92501 25.6851 8.9777 25.6852 9.03097L25.6945 10.8676C25.6947 10.9208 25.6847 10.9736 25.6649 11.0229C25.6451 11.0722 25.6162 11.1171 25.5794 11.1549C25.5428 11.1927 25.4992 11.2228 25.4511 11.2434C25.403 11.264 25.3514 11.2747 25.2994 11.2749L24.4739 11.2792C24.3739 11.6569 24.229 12.0207 24.0425 12.3624L24.6296 12.957C24.6665 12.9947 24.6957 13.0394 24.7157 13.0886C24.7356 13.1379 24.7459 13.1907 24.7459 13.244C24.7459 13.2973 24.7356 13.3501 24.7157 13.3993C24.6957 13.4486 24.6665 13.4933 24.6296 13.531ZM21.9289 9.96843C21.9312 10.3897 21.8111 10.8022 21.5842 11.1538C21.3571 11.5053 21.0334 11.7801 20.6536 11.9434C20.2739 12.1067 19.8554 12.1512 19.4509 12.0712C19.0466 11.9913 18.6743 11.7904 18.3816 11.4941C18.0887 11.1979 17.8884 10.8194 17.8058 10.4067C17.7233 9.9939 17.7623 9.56539 17.9178 9.1753C18.0735 8.78521 18.3386 8.45107 18.6799 8.21513C19.0211 7.97918 19.4231 7.85204 19.8351 7.84976C20.3874 7.84683 20.9183 8.06837 21.311 8.46567C21.7036 8.86297 21.9259 9.40351 21.9289 9.96843ZM22.7219 9.96487C22.7246 10.5466 22.5587 11.116 22.245 11.6012C21.9313 12.0864 21.484 12.4656 20.9597 12.6908C20.4353 12.916 19.8575 12.9772 19.2991 12.8665C18.7407 12.7558 18.227 12.4782 17.8229 12.0689C17.4187 11.6596 17.1424 11.137 17.0288 10.567C16.915 9.99709 16.9691 9.40546 17.1842 8.86697C17.3992 8.32846 17.7655 7.86728 18.2368 7.54171C18.7082 7.21615 19.2632 7.04084 19.832 7.03793C20.2099 7.03559 20.5844 7.10948 20.9344 7.25538C21.2842 7.40127 21.6026 7.61628 21.8711 7.88815C22.1397 8.16001 22.3533 8.48335 22.4995 8.83971C22.6458 9.19606 22.7219 9.57841 22.7234 9.96487H22.7219Z" fill="white"/>
</svg>
