<svg width="36" height="36" viewBox="0 0 36 36" fill="none" xmlns="http://www.w3.org/2000/svg">
<path fill-rule="evenodd" clip-rule="evenodd" d="M23.1435 14.0139L23.848 13.2854L23.3215 12.7521C23.2569 12.6864 23.2164 12.6 23.2067 12.5073C23.1971 12.4146 23.2189 12.3214 23.2686 12.2433C23.5386 11.8161 23.7287 11.3414 23.8294 10.8432C23.8455 10.7495 23.8932 10.6645 23.9643 10.6031C24.0354 10.5417 24.1254 10.5079 24.2185 10.5074L24.9589 10.5035L24.9539 9.47634L24.2389 9.48028C24.1432 9.48719 24.0484 9.45848 23.9717 9.39945C23.8951 9.34042 23.842 9.25506 23.8221 9.15911C23.7174 8.65799 23.5217 8.18138 23.2454 7.75391C23.1952 7.67596 23.1727 7.58268 23.1817 7.48974C23.1907 7.39681 23.2306 7.30986 23.2949 7.24351L23.8147 6.70624L23.103 5.98567L22.5815 6.52412C22.5172 6.5902 22.4327 6.63166 22.3421 6.64151C22.2516 6.65137 22.1604 6.62903 22.084 6.57825C21.6662 6.30212 21.2019 6.10763 20.7148 6.00463C20.6231 5.98822 20.54 5.93938 20.4801 5.86665C20.4202 5.79391 20.3872 5.70194 20.3868 5.60682L20.3829 4.84951L19.3786 4.85464L19.3821 5.58588C19.3889 5.68373 19.3609 5.78082 19.3032 5.85918C19.2454 5.93753 19.162 5.99186 19.0681 6.01214C18.5783 6.11935 18.1125 6.3194 17.6946 6.60194C17.6184 6.65337 17.5272 6.67641 17.4363 6.66721C17.3454 6.658 17.2604 6.61711 17.1956 6.55138L16.6703 6.01965L15.9653 6.74772L16.4922 7.28104C16.5568 7.34677 16.5973 7.43321 16.6069 7.52585C16.6165 7.61849 16.5947 7.71171 16.5451 7.78986C16.2757 8.21782 16.0863 8.69323 15.9865 9.1919C15.9705 9.28557 15.9228 9.37047 15.8517 9.43177C15.7806 9.49308 15.6906 9.52689 15.5976 9.5273L14.8572 9.53125L14.8622 10.5584L15.5768 10.5548C15.6726 10.5478 15.7675 10.5765 15.8442 10.6355C15.9208 10.6946 15.9741 10.78 15.994 10.876C16.0988 11.377 16.2943 11.8535 16.5706 12.2808C16.6209 12.3588 16.6434 12.4521 16.6343 12.5451C16.6253 12.638 16.5852 12.7249 16.5208 12.7912L16.0009 13.3285L16.7131 14.0494L17.2346 13.5106C17.2989 13.4446 17.3833 13.4032 17.474 13.3933C17.5645 13.3835 17.6557 13.4058 17.732 13.4565C18.1496 13.7321 18.6135 13.926 19.1002 14.0285C19.1918 14.0449 19.2749 14.0937 19.3349 14.1665C19.395 14.2392 19.428 14.3312 19.4285 14.4263L19.4324 15.1836L20.4367 15.1785L20.4328 14.4477C20.426 14.3498 20.454 14.2527 20.5117 14.1743C20.5695 14.0959 20.6529 14.0414 20.7468 14.021C21.2368 13.9139 21.7027 13.7138 22.1207 13.4312C22.1969 13.3797 22.2882 13.3567 22.379 13.366C22.4699 13.3753 22.5549 13.4163 22.6197 13.4821L23.145 14.0139H23.1435ZM24.6908 13.5687L23.4277 14.8724C23.391 14.9101 23.3473 14.9401 23.299 14.9605C23.251 14.981 23.1993 14.9915 23.1472 14.9915C23.095 14.9915 23.0434 14.981 22.9952 14.9605C22.9471 14.9401 22.9033 14.9101 22.8665 14.8724L22.281 14.2798C21.9485 14.4741 21.5942 14.6263 21.2257 14.7329L21.2299 15.5771C21.2302 15.6303 21.2202 15.6832 21.2005 15.7325C21.1808 15.7818 21.1518 15.8267 21.1151 15.8644C21.0785 15.9023 21.0349 15.9324 20.9868 15.9529C20.9389 15.9735 20.8873 15.9842 20.8352 15.9845L19.0396 15.9939C18.9874 15.9941 18.9358 15.9838 18.8876 15.9635C18.8394 15.9434 18.7956 15.9137 18.7585 15.8762C18.7216 15.8386 18.6922 15.794 18.6721 15.7449C18.652 15.6958 18.6415 15.6431 18.6413 15.5897L18.637 14.7459C18.2678 14.6433 17.9122 14.495 17.578 14.3042L16.9966 14.9051C16.9222 14.9812 16.8212 15.024 16.7161 15.024C16.6108 15.024 16.5098 14.9812 16.4354 14.9051L15.1607 13.6129C15.1238 13.5753 15.0946 13.5305 15.0746 13.4813C15.0547 13.432 15.0444 13.3792 15.0444 13.3259C15.0444 13.2726 15.0547 13.2198 15.0746 13.1705C15.0946 13.1213 15.1238 13.0766 15.1607 13.0389L15.7402 12.44C15.5502 12.1001 15.4014 11.7378 15.2971 11.3611L14.4717 11.3655C14.4196 11.3657 14.368 11.3554 14.3197 11.3352C14.2715 11.315 14.2277 11.2853 14.1908 11.2478C14.1538 11.2102 14.1244 11.1656 14.1043 11.1165C14.0842 11.0673 14.0737 11.0146 14.0735 10.9613L14.0612 9.12988C14.0608 9.02231 14.1022 8.919 14.1764 8.84264C14.2504 8.76628 14.3511 8.72311 14.4563 8.72258L15.2813 8.71824C15.3816 8.34055 15.5266 7.97678 15.7131 7.63501L15.1256 7.04243C15.0513 6.96621 15.0095 6.86292 15.0095 6.75523C15.0095 6.64753 15.0513 6.54424 15.1256 6.46802L16.3891 5.16436C16.4259 5.12664 16.4697 5.09673 16.5178 5.07632C16.566 5.05591 16.6176 5.0454 16.6696 5.0454C16.7218 5.0454 16.7734 5.05591 16.8216 5.07632C16.8697 5.09673 16.9134 5.12664 16.9503 5.16436L17.5358 5.75694C17.8675 5.56084 18.2212 5.4067 18.5892 5.29788L18.585 4.45366C18.5846 4.34608 18.626 4.24279 18.7002 4.16643C18.7742 4.09007 18.8749 4.04688 18.9801 4.04637L20.7761 4.03768C20.8813 4.03736 20.9823 4.07973 21.057 4.1555C21.1316 4.23127 21.1739 4.33424 21.1744 4.4418L21.1786 5.28603C21.5479 5.38834 21.9037 5.53654 22.2377 5.72731L22.817 5.12683C22.8539 5.0891 22.8978 5.05918 22.9459 5.03876C22.9941 5.01835 23.0458 5.00785 23.098 5.00785C23.15 5.00785 23.2017 5.01835 23.2499 5.03876C23.298 5.05918 23.3419 5.0891 23.3788 5.12683L24.6533 6.41865C24.6902 6.45632 24.7195 6.50107 24.7394 6.5503C24.7594 6.59955 24.7696 6.65233 24.7696 6.70564C24.7696 6.75895 24.7594 6.81174 24.7394 6.86099C24.7195 6.91023 24.6902 6.95497 24.6533 6.99266L24.0739 7.59155C24.2658 7.93083 24.4165 8.29273 24.5228 8.66924L25.3482 8.6649C25.4003 8.66464 25.4518 8.67489 25.5001 8.69503C25.5483 8.71519 25.5921 8.74487 25.6291 8.78236C25.6662 8.81985 25.6955 8.86444 25.7157 8.91356C25.7357 8.96269 25.7463 9.01538 25.7464 9.06865L25.7557 10.9052C25.7559 10.9585 25.7459 11.0113 25.7261 11.0606C25.7063 11.1099 25.6774 11.1548 25.6406 11.1926C25.6039 11.2304 25.5604 11.2605 25.5123 11.281C25.4642 11.3016 25.4126 11.3123 25.3606 11.3125L24.5351 11.3169C24.4351 11.6946 24.2902 12.0584 24.1036 12.4001L24.6908 12.9947C24.7277 13.0323 24.7569 13.0771 24.7768 13.1263C24.7968 13.1756 24.8071 13.2284 24.8071 13.2817C24.8071 13.335 24.7968 13.3878 24.7768 13.437C24.7569 13.4863 24.7277 13.531 24.6908 13.5687ZM21.9901 10.0061C21.9924 10.4274 21.8723 10.8399 21.6454 11.1914C21.4183 11.543 21.0946 11.8178 20.7148 11.9811C20.3351 12.1444 19.9166 12.1889 19.5121 12.1089C19.1077 12.0289 18.7355 11.8281 18.4428 11.5318C18.1499 11.2355 17.9496 10.8571 17.867 10.4443C17.7845 10.0316 17.8234 9.60307 17.979 9.21297C18.1347 8.82289 18.3998 8.48875 18.7411 8.25281C19.0823 8.01686 19.4843 7.88971 19.8963 7.88744C20.4486 7.8845 20.9795 8.10604 21.3721 8.50334C21.7648 8.90064 21.9871 9.44119 21.9901 10.0061ZM22.7831 10.0026C22.7858 10.5842 22.6199 11.1537 22.3062 11.6389C21.9925 12.1241 21.5452 12.5033 21.0209 12.7285C20.4964 12.9537 19.9186 13.0148 19.3603 12.9041C18.8019 12.7934 18.2882 12.5159 17.8841 12.1066C17.4799 11.6973 17.2036 11.1747 17.0899 10.6047C16.9762 10.0348 17.0303 9.44314 17.2454 8.90464C17.4604 8.36614 17.8267 7.90495 18.298 7.57938C18.7693 7.25383 19.3244 7.07851 19.8932 7.07561C20.2711 7.07327 20.6456 7.14716 20.9956 7.29306C21.3454 7.43894 21.6637 7.65396 21.9323 7.92582C22.2009 8.19768 22.4145 8.52103 22.5607 8.87738C22.707 9.23373 22.7831 9.61608 22.7846 10.0026H22.7831ZM8.39288 20.5899C8.28726 20.5899 8.18597 20.547 8.11129 20.4706C8.03661 20.3942 7.99465 20.2907 7.99465 20.1826C7.99465 20.0746 8.03661 19.971 8.11129 19.8946C8.18597 19.8182 8.28726 19.7753 8.39288 19.7753H21.0465C21.1522 19.7753 21.2535 19.8182 21.328 19.8946C21.4027 19.971 21.4448 20.0746 21.4448 20.1826C21.4448 20.2907 21.4027 20.3942 21.328 20.4706C21.2535 20.547 21.1522 20.5899 21.0465 20.5899H8.39288ZM8.39288 19.1832C8.33956 19.1848 8.28646 19.1756 8.23672 19.1558C8.18698 19.1361 8.1416 19.1064 8.1033 19.0685C8.06501 19.0305 8.03455 18.985 8.01376 18.9348C7.99296 18.8846 7.98225 18.8306 7.98225 18.7761C7.98225 18.7215 7.99296 18.6674 8.01376 18.6172C8.03455 18.567 8.06501 18.5216 8.1033 18.4836C8.1416 18.4456 8.18698 18.4159 8.23672 18.3962C8.28646 18.3766 8.33956 18.3672 8.39288 18.3689H21.0465C21.0998 18.3672 21.1529 18.3766 21.2027 18.3962C21.2524 18.4159 21.2978 18.4456 21.336 18.4836C21.3743 18.5216 21.4048 18.567 21.4256 18.6172C21.4465 18.6674 21.4571 18.7215 21.4571 18.7761C21.4571 18.8306 21.4465 18.8846 21.4256 18.9348C21.4048 18.985 21.3743 19.0305 21.336 19.0685C21.2978 19.1064 21.2524 19.1361 21.2027 19.1558C21.1529 19.1756 21.0998 19.1848 21.0465 19.1832H8.39288ZM8.39288 14.8004H13.8704C13.9738 14.7971 14.0719 14.7528 14.1439 14.6768C14.2159 14.6008 14.2561 14.4992 14.2561 14.3933C14.2561 14.2875 14.2159 14.1858 14.1439 14.1099C14.0719 14.0339 13.9738 13.9895 13.8704 13.9862H8.39288C8.33956 13.9845 8.28646 13.9938 8.23672 14.0135C8.18698 14.0332 8.1416 14.0629 8.1033 14.1009C8.06501 14.1389 8.03455 14.1843 8.01376 14.2345C7.99296 14.2848 7.98225 14.3388 7.98225 14.3933C7.98225 14.4479 7.99296 14.5019 8.01376 14.5521C8.03455 14.6024 8.06501 14.6478 8.1033 14.6858C8.1416 14.7238 8.18698 14.7535 8.23672 14.7732C8.28646 14.7929 8.33956 14.8021 8.39288 14.8004ZM8.39288 13.3941C8.33956 13.3958 8.28646 13.3865 8.23672 13.3668C8.18698 13.3471 8.1416 13.3174 8.1033 13.2794C8.06501 13.2414 8.03455 13.196 8.01376 13.1457C7.99296 13.0955 7.98225 13.0415 7.98225 12.987C7.98225 12.9324 7.99296 12.8784 8.01376 12.8282C8.03455 12.7779 8.06501 12.7325 8.1033 12.6945C8.1416 12.6565 8.18698 12.6268 8.23672 12.6071C8.28646 12.5874 8.33956 12.5782 8.39288 12.5799H13.031C13.0843 12.5782 13.1374 12.5874 13.1872 12.6071C13.2369 12.6268 13.2823 12.6565 13.3206 12.6945C13.3589 12.7325 13.3893 12.7779 13.4101 12.8282C13.4309 12.8784 13.4416 12.9324 13.4416 12.987C13.4416 13.0415 13.4309 13.0955 13.4101 13.1457C13.3893 13.196 13.3589 13.2414 13.3206 13.2794C13.2823 13.3174 13.2369 13.3471 13.1872 13.3668C13.1374 13.3865 13.0843 13.3958 13.031 13.3941H8.39288ZM6.18351 6.9966C5.9787 6.78702 5.70917 6.65656 5.42085 6.62745C5.13253 6.59834 4.84326 6.67239 4.60234 6.83697C4.36141 7.00155 4.18374 7.24648 4.09959 7.53002C4.01544 7.81357 4.03003 8.11819 4.14086 8.39198C4.25169 8.66575 4.45191 8.89176 4.70741 9.03147C4.96291 9.17118 5.25786 9.21597 5.54203 9.15818C5.82619 9.10039 6.08197 8.94362 6.26577 8.71457C6.44959 8.48553 6.55006 8.19838 6.55007 7.90206V7.89297L5.66786 8.65028C5.59224 8.71503 5.49572 8.74864 5.39717 8.74455C5.29862 8.74046 5.2051 8.69896 5.13484 8.62816L4.36891 7.85544C4.29611 7.77945 4.25538 7.67729 4.25545 7.5709C4.25554 7.46452 4.29644 7.36242 4.36936 7.28655C4.44227 7.21068 4.54137 7.1671 4.64537 7.16518C4.74937 7.16326 4.84996 7.20316 4.92549 7.2763L5.43418 7.78986L6.25921 7.08114C6.23527 7.05191 6.21016 7.02386 6.18197 6.9966H6.18351ZM5.29822 5.8075C5.56726 5.80722 5.83369 5.86127 6.08225 5.96655C6.33082 6.07184 6.5566 6.22627 6.74667 6.42101C6.78916 6.46487 6.8301 6.5103 6.86872 6.55771L7.3384 6.15436C7.41934 6.08611 7.52338 6.05335 7.62782 6.06323C7.73227 6.0731 7.82867 6.12481 7.89601 6.20707C7.96334 6.28934 7.99614 6.39549 7.98727 6.50238C7.97839 6.60928 7.92857 6.70826 7.84865 6.77775L7.2573 7.28499C7.38387 7.70622 7.37727 8.15754 7.23845 8.57471C7.09963 8.99187 6.83565 9.35361 6.48412 9.60839C6.1326 9.86319 5.71142 9.99804 5.28059 9.99375C4.84976 9.98947 4.43124 9.84628 4.08461 9.58454C3.73798 9.32281 3.48094 8.9559 3.35007 8.53605C3.21919 8.11621 3.22119 7.66483 3.35574 7.2462C3.49029 6.82758 3.75055 6.46305 4.09946 6.20451C4.44838 5.94598 4.86815 5.80663 5.29899 5.80631L5.29822 5.8075ZM16.2868 25.2223C16.2334 25.2239 16.1803 25.2147 16.1305 25.195C16.0808 25.1753 16.0354 25.1455 15.9971 25.1077C15.9589 25.0697 15.9284 25.0242 15.9076 24.9739C15.8868 24.9237 15.8761 24.8698 15.8761 24.8152C15.8761 24.7606 15.8868 24.7066 15.9076 24.6564C15.9284 24.6061 15.9589 24.5606 15.9971 24.5228C16.0354 24.4848 16.0808 24.455 16.1305 24.4353C16.1803 24.4156 16.2334 24.4064 16.2868 24.4081H16.4853C16.5386 24.4064 16.5917 24.4156 16.6414 24.4353C16.6911 24.455 16.7365 24.4848 16.7748 24.5228C16.8131 24.5606 16.8436 24.6061 16.8644 24.6564C16.8851 24.7066 16.8959 24.7606 16.8959 24.8152C16.8959 24.8698 16.8851 24.9237 16.8644 24.9739C16.8436 25.0242 16.8131 25.0697 16.7748 25.1077C16.7365 25.1455 16.6911 25.1753 16.6414 25.195C16.5917 25.2147 16.5386 25.2239 16.4853 25.2223H16.2868ZM26.5954 29.9444H6.37548C6.12059 29.9453 5.87639 30.0492 5.69615 30.2335C5.5159 30.4179 5.41424 30.6676 5.41333 30.9284V31.912H27.5576V30.9284C27.5567 30.6676 27.455 30.4179 27.2747 30.2335C27.0945 30.0492 26.8503 29.9453 26.5954 29.9444ZM14.8414 29.1301H18.1296V26.7096H14.8414V29.1301ZM6.18351 12.7849C5.97874 12.5754 5.70926 12.445 5.42103 12.4159C5.13279 12.3869 4.84362 12.4609 4.60279 12.6255C4.36196 12.7901 4.18437 13.035 4.10029 13.3184C4.01621 13.6019 4.03084 13.9064 4.14168 14.1801C4.25252 14.4538 4.45272 14.6797 4.70815 14.8193C4.9636 14.959 5.25848 15.0037 5.54254 14.9459C5.82661 14.888 6.08229 14.7313 6.266 14.5023C6.44972 14.2733 6.55011 13.9862 6.55007 13.6899C6.55034 13.5218 6.51809 13.3553 6.45518 13.2C6.39227 13.0446 6.29995 12.9036 6.18351 12.7849ZM5.29822 11.5954C5.77181 11.5955 6.23074 11.7635 6.59679 12.0708C6.96286 12.3781 7.21342 12.8057 7.30579 13.2808C7.39815 13.7559 7.32663 14.249 7.10336 14.6762C6.88011 15.1034 6.51895 15.4382 6.08141 15.6235C5.64388 15.8089 5.15705 15.8334 4.70383 15.6928C4.25063 15.5522 3.85909 15.2553 3.59595 14.8526C3.3328 14.4499 3.21431 13.9663 3.26066 13.4842C3.30701 13.0022 3.51535 12.5515 3.85016 12.2089C4.04019 12.0142 4.26591 11.8598 4.5144 11.7545C4.76289 11.6492 5.02926 11.5952 5.29822 11.5954ZM5.29822 18.199C5.05067 18.199 4.80866 18.2741 4.60282 18.4148C4.39697 18.5554 4.23652 18.7553 4.14175 18.9892C4.04698 19.2232 4.02214 19.4805 4.07038 19.7289C4.11862 19.9773 4.23776 20.2053 4.41276 20.3844C4.58776 20.5635 4.81074 20.6856 5.05352 20.735C5.2963 20.7846 5.548 20.7594 5.77675 20.6626C6.0055 20.5658 6.20107 20.4018 6.33872 20.1913C6.47637 19.9809 6.54991 19.7334 6.55007 19.4803C6.55012 19.3121 6.51777 19.1456 6.45487 18.9902C6.39199 18.8348 6.29978 18.6936 6.18352 18.5747C6.06727 18.4559 5.92925 18.3616 5.77734 18.2971C5.62543 18.2328 5.46264 18.199 5.29822 18.199ZM5.29822 17.3844C5.7031 17.3844 6.0989 17.5072 6.43555 17.7373C6.7722 17.9673 7.03459 18.2944 7.18953 18.6769C7.34447 19.0596 7.38501 19.4805 7.30603 19.8867C7.22704 20.2929 7.03207 20.666 6.74577 20.9587C6.45946 21.2516 6.09471 21.451 5.6976 21.5318C5.3005 21.6125 4.88889 21.5711 4.51482 21.4126C4.14076 21.2542 3.82104 20.9858 3.59609 20.6415C3.37115 20.2971 3.25108 19.8924 3.25108 19.4783C3.25108 18.923 3.46676 18.3904 3.85067 17.9977C4.23459 17.6051 4.75529 17.3844 5.29822 17.3844ZM8.39288 9.39298H12.6722C12.7756 9.38968 12.8737 9.34535 12.9457 9.26937C13.0177 9.19338 13.058 9.0917 13.058 8.98588C13.058 8.88005 13.0177 8.77839 12.9457 8.7024C12.8737 8.62641 12.7756 8.58207 12.6722 8.57879H8.39288C8.33956 8.57709 8.28646 8.58636 8.23672 8.60605C8.18698 8.62574 8.1416 8.65546 8.1033 8.69343C8.06501 8.7314 8.03455 8.77685 8.01376 8.8271C7.99296 8.87733 7.98225 8.93132 7.98225 8.98588C7.98225 9.04044 7.99296 9.09444 8.01376 9.14467C8.03455 9.19492 8.06501 9.24036 8.1033 9.27834C8.1416 9.3163 8.18698 9.34602 8.23672 9.36571C8.28646 9.38541 8.33956 9.39468 8.39288 9.39298ZM8.39288 7.98621H13.031C13.0843 7.9879 13.1374 7.97863 13.1872 7.95893C13.2369 7.93925 13.2823 7.90953 13.3206 7.87156C13.3589 7.83359 13.3893 7.78814 13.4101 7.73789C13.4309 7.68766 13.4416 7.63365 13.4416 7.57911C13.4416 7.52455 13.4309 7.47055 13.4101 7.42031C13.3893 7.37008 13.3589 7.32463 13.3206 7.28665C13.2823 7.24869 13.2369 7.21897 13.1872 7.19927C13.1374 7.17958 13.0843 7.1703 13.031 7.17201H8.39288C8.33956 7.1703 8.28646 7.17958 8.23672 7.19927C8.18698 7.21897 8.1416 7.24869 8.1033 7.28665C8.06501 7.32463 8.03455 7.37008 8.01376 7.42031C7.99296 7.47055 7.98225 7.52455 7.98225 7.57911C7.98225 7.63365 7.99296 7.68766 8.01376 7.73789C8.03455 7.78814 8.06501 7.83359 8.1033 7.87156C8.1416 7.90953 8.18698 7.93925 8.23672 7.95893C8.28646 7.97863 8.33956 7.9879 8.39288 7.98621ZM28.4312 13.5244C29.7632 13.1645 31.1803 13.3593 32.3721 14.0661C33.5639 14.7729 34.4331 15.9341 34.7893 17.2952C35.1865 18.8114 34.9319 19.9914 34.259 21.3568C33.5686 22.5712 32.4353 23.456 31.108 23.8175C28.1922 24.6159 25.6225 22.8879 24.7255 20.0333C23.9569 17.0546 25.6471 14.439 28.4312 13.5244ZM31.1737 12.7075C29.9041 12.3931 28.5691 12.5108 27.3709 13.0429C26.1727 13.5749 25.177 14.4922 24.5346 15.6554C23.8924 16.8188 23.6386 18.1646 23.8119 19.4887C23.9852 20.8129 24.5761 22.0431 25.4949 22.9926H1.79569V4.15224C1.7926 3.79802 1.92257 3.45609 2.15876 3.19701C2.26733 3.07723 2.39874 2.98146 2.54489 2.91563C2.69104 2.84979 2.84883 2.81527 3.00852 2.8142H29.9612C30.1209 2.81534 30.2787 2.84989 30.4249 2.91572C30.5709 2.98156 30.7023 3.07728 30.811 3.19701C31.0465 3.45566 31.1764 3.79677 31.1737 4.15027V12.7075ZM31.9698 21.2354C32.2351 20.9957 32.4616 20.7142 32.6407 20.4018C33.0318 19.718 33.1786 18.9164 33.0563 18.1341C32.9339 17.3517 32.5499 16.6371 31.9698 16.112V21.2354ZM31.1752 15.579C30.6666 15.3368 30.1064 15.2295 29.5465 15.2672C28.9865 15.305 28.445 15.4865 27.9717 15.795C27.4986 16.1035 27.109 16.529 26.8393 17.0321C26.5694 17.5354 26.428 18.1 26.428 18.6739C26.428 19.2478 26.5694 19.8124 26.8393 20.3157C27.109 20.8189 27.4986 21.2443 27.9717 21.5528C28.445 21.8613 28.9865 22.0428 29.5465 22.0805C30.1064 22.1183 30.6666 22.0111 31.1752 21.7687V15.579ZM28.69 14.5887C27.9007 14.8054 27.1921 15.2566 26.6533 15.8852C26.1148 16.5139 25.7704 17.2917 25.664 18.1204C25.5574 18.9491 25.6936 19.7915 26.0551 20.5412C26.4166 21.2907 26.9874 21.9139 27.695 22.3318C28.4028 22.7499 29.2158 22.9438 30.0313 22.8893C30.8468 22.8347 31.6282 22.5341 32.2767 22.0254C32.9252 21.5168 33.4117 20.8229 33.6746 20.0315C33.9377 19.2401 33.9653 18.3867 33.7542 17.5793C33.4701 16.496 32.7771 15.5726 31.8274 15.0117C30.8778 14.451 29.7493 14.2988 28.69 14.5887ZM33.2416 28.0255L31.3166 28.553L32.3011 32.3103C32.3575 32.5268 32.5665 32.8092 32.8176 32.7401L33.9891 32.4193C34.2401 32.3506 34.2823 31.9981 34.2258 31.7821L33.2416 28.0255ZM30.1212 24.8023L30.3301 25.6012C30.3513 25.6671 30.3567 25.6706 30.4236 25.656L32.6202 25.0544C32.6272 25.0526 32.6336 25.0494 32.6394 25.0449C32.645 25.0406 32.6499 25.0351 32.6535 25.0288C32.6571 25.0225 32.6594 25.0154 32.6603 25.0081C32.6612 25.0009 32.6607 24.9935 32.6588 24.9864L32.4437 24.1655C31.7191 24.5346 30.929 24.7512 30.1212 24.8023ZM29.5873 25.8975C29.58 25.8764 29.5735 25.8547 29.5681 25.833L29.2977 24.7952C28.2895 24.715 27.3178 24.3752 26.4726 23.8077H1.79569V24.563C1.78409 24.9044 1.9052 25.2364 2.13251 25.4868C2.35982 25.737 2.6748 25.885 3.00852 25.8982H29.5862L29.5873 25.8975ZM32.3077 25.982L31.1278 26.3059L31.4236 27.6823L32.726 27.3267L32.3092 25.9836L32.3077 25.982ZM33.1543 23.7377L33.4247 24.7763C33.4705 24.9542 33.4602 25.1424 33.3952 25.314C33.3303 25.4856 33.2142 25.6318 33.0631 25.7319L33.4946 27.1217C33.5866 27.1154 33.6778 27.142 33.7527 27.1969C33.8276 27.2518 33.8815 27.3316 33.9053 27.4227L34.9921 31.5708C35.0807 31.9006 35.0534 32.2518 34.915 32.5631C34.8481 32.7177 34.7486 32.8553 34.6236 32.9659C34.4988 33.0766 34.3514 33.1576 34.1923 33.2031L33.0207 33.5242C32.8606 33.5662 32.6935 33.5713 32.5311 33.5393C32.3689 33.5074 32.2156 33.4391 32.0821 33.3394C31.8101 33.1401 31.615 32.8496 31.5306 32.5185L30.4456 28.3689C30.4219 28.2779 30.4297 28.1812 30.4678 28.0955C30.5059 28.0099 30.5719 27.9403 30.6545 27.8988L30.3885 26.6591C28.3354 26.6765 21.3907 26.7076 18.9256 26.7076V29.1285H26.5954C27.0614 29.1297 27.508 29.3195 27.8375 29.6565C28.1669 29.9936 28.3525 30.4503 28.3536 30.9268V32.3194C28.3536 32.4274 28.3115 32.5309 28.2368 32.6073C28.1623 32.6837 28.0609 32.7265 27.9554 32.7267H5.01703C4.96462 32.7268 4.9127 32.7164 4.86423 32.696C4.81576 32.6756 4.77169 32.6456 4.73456 32.6078C4.69742 32.57 4.66795 32.5251 4.64783 32.4755C4.62769 32.426 4.61731 32.3729 4.61725 32.3194V30.9284C4.61839 30.4518 4.80398 29.9951 5.13347 29.6581C5.46296 29.3211 5.90951 29.1313 6.37548 29.1301H14.0452V26.7096H3.00852C2.74063 26.7087 2.47578 26.6513 2.23036 26.5415C1.98494 26.4316 1.76417 26.2714 1.5817 26.0709C1.2068 25.6622 0.998715 25.1225 1.00001 24.5622V4.15224C0.998824 3.59117 1.20765 3.05091 1.58363 2.64235C1.76564 2.44141 1.98597 2.28074 2.23104 2.17026C2.4761 2.05978 2.7407 2.00184 3.00852 2H29.9612C30.2292 2.00131 30.4942 2.05882 30.7395 2.16896C30.9849 2.27911 31.2057 2.43955 31.388 2.64038C31.7639 3.04901 31.9726 3.58925 31.9713 4.15027V12.967C32.9829 13.3777 33.8665 14.062 34.5272 14.9467C35.188 15.8313 35.6013 16.883 35.7228 17.9893C35.8444 19.0955 35.6695 20.2148 35.2171 21.2274C34.7648 22.2399 34.0517 23.1075 33.1543 23.7377Z" fill="white"/>
</svg>
