<svg width="36" height="36" viewBox="0 0 36 36" fill="none" xmlns="http://www.w3.org/2000/svg">
<path d="M5.84838 24.112C5.10171 24.112 4.42971 23.984 3.83238 23.728C3.23504 23.4613 2.76571 23.088 2.42438 22.608C2.08304 22.128 1.91238 21.568 1.91238 20.928H3.86438C3.90704 21.408 4.09371 21.8027 4.42438 22.112C4.76571 22.4213 5.24038 22.576 5.84838 22.576C6.47771 22.576 6.96838 22.4267 7.32038 22.128C7.67238 21.8187 7.84838 21.424 7.84838 20.944C7.84838 20.5707 7.73638 20.2667 7.51238 20.032C7.29904 19.7973 7.02704 19.616 6.69638 19.488C6.37638 19.36 5.92838 19.2213 5.35238 19.072C4.62704 18.88 4.03504 18.688 3.57638 18.496C3.12838 18.2933 2.74438 17.984 2.42438 17.568C2.10438 17.152 1.94438 16.5973 1.94438 15.904C1.94438 15.264 2.10438 14.704 2.42438 14.224C2.74438 13.744 3.19238 13.376 3.76838 13.12C4.34438 12.864 5.01104 12.736 5.76838 12.736C6.84571 12.736 7.72571 13.008 8.40838 13.552C9.10171 14.0853 9.48571 14.8213 9.56038 15.76H7.54438C7.51238 15.3547 7.32038 15.008 6.96838 14.72C6.61638 14.432 6.15238 14.288 5.57638 14.288C5.05371 14.288 4.62704 14.4213 4.29638 14.688C3.96571 14.9547 3.80038 15.3387 3.80038 15.84C3.80038 16.1813 3.90171 16.464 4.10438 16.688C4.31771 16.9013 4.58438 17.072 4.90438 17.2C5.22438 17.328 5.66171 17.4667 6.21638 17.616C6.95238 17.8187 7.54971 18.0213 8.00838 18.224C8.47771 18.4267 8.87238 18.7413 9.19238 19.168C9.52304 19.584 9.68838 20.144 9.68838 20.848C9.68838 21.4133 9.53371 21.9467 9.22438 22.448C8.92571 22.9493 8.48304 23.3547 7.89638 23.664C7.32038 23.9627 6.63771 24.112 5.84838 24.112ZM26.3206 12.88L23.0246 24H20.9606L18.6246 15.584L16.1446 24L14.0966 24.016L10.9446 12.88H12.8806L15.1846 21.936L17.6806 12.88H19.7286L22.0486 21.888L24.3686 12.88H26.3206ZM29.649 14.352V17.616H33.489V19.104H29.649V22.512H33.969V24H27.825V12.864H33.969V14.352H29.649Z" fill="#FF7A4E"/>
</svg>
